<?xml version="1.0" encoding="utf-8"?>
<!-- Generator: Adobe Illustrator 18.0.0, SVG Export Plug-In . SVG Version: 6.00 Build 0)  -->
<!DOCTYPE svg PUBLIC "-//W3C//DTD SVG 1.1//EN" "http://www.w3.org/Graphics/SVG/1.1/DTD/svg11.dtd">
<svg version="1.1" id="Layer_1" xmlns="http://www.w3.org/2000/svg" xmlns:xlink="http://www.w3.org/1999/xlink" x="0px" y="0px"
	 width="612px" height="792px" viewBox="0 0 612 792" enable-background="new 0 0 612 792" xml:space="preserve">
<g>
	<path d="M591.4,355.9c0,0-90.8-34.7-334.8-5.4c-5.4-26.8-9.8-56.1-13.4-87.3c0,0-2.7-39.2-16.1-63.2c0,0-16.9-24.9-27.6-19.6
		c0,0-6.3,3.6-5.4,14.2c0,0,9,72.2,24.1,161.2c-10.7,1.7-22.2,2.7-32.9,4.4l-32.9-155.9c0,0-14.2-21.4-34.7-0.9
		c0,0-6.3,6.3-5.4,17.8c0,0-26.7-20.5-49.8,3.6c-24.1,24.1-32.9,88.1-14.2,109.5c17.8,20.5,69.5,10.7,90.8-2.7l8,33.9
		c0,0-101.5,13.4-135.4,83.7S34,575.8,116.9,583c66.8,5.4,97.1-62.3,91.7-93.5c0,0-4.4-60.5-16.1-97.9c0,0,11.5-2.7,31.2-6.3
		c8.8,49.8,20.5,102.4,33.9,148.8c0,0,9.8,24.9,32.9,16.9c0,0,16.1-3.6,12.5-19.6c0,0-21.4-59.7-40-152.3
		c34.7-4.4,79.3-8.8,124.7-7.1c0,0,113.1,2.7,173.7,19.6c0,0,48.1,16.9,44.5-26.8C603.9,364.8,601.2,360.3,591.4,355.9z M89.1,312.3
		c-25.8-8.8-5.4-58.8-5.4-58.8c7.1-10.7,23.2-5.4,23.2-5.4c9.8,1.7,9.8,31.2,9.8,31.2C126.5,318.6,89.1,312.3,89.1,312.3z
		 M158.6,482.3c-32.9,68.6-88.1,16.1-88.1,16.1c-49-65.9,82.8-100.6,82.8-100.6C171.1,464.5,158.6,482.3,158.6,482.3z"/>
</g>
</svg>
